<svg width="21" height="21" viewBox="0 0 21 21" fill="none" xmlns="http://www.w3.org/2000/svg">
<path d="M10.4943 8.81471C12.0779 8.81471 13.3617 7.5647 13.3617 6.02274C13.3617 4.48078 12.0779 3.23077 10.4943 3.23077C8.91062 3.23077 7.62683 4.48078 7.62683 6.02274C7.62683 7.5647 8.91062 8.81471 10.4943 8.81471Z" fill="black"/>
<path d="M14.4101 9.80029H6.57766C6.06779 9.80029 5.65381 10.2028 5.65381 10.6998V16.3766C7.0644 17.23 8.72372 17.7314 10.5071 17.7314C12.2792 17.7314 13.9284 17.236 15.3345 16.392V10.6998C15.3345 10.2034 14.9205 9.80029 14.4101 9.80029Z" fill="black"/>
<circle cx="10.5" cy="10.5" r="10" stroke="black"/>
</svg>
