<svg width="17" height="22" viewBox="0 0 17 22" fill="none" xmlns="http://www.w3.org/2000/svg">
<path d="M8.75931 0C4.29365 0 0.660156 3.63349 0.660156 8.0996C0.660156 9.26453 0.898591 10.3768 1.36848 11.4057C3.3935 15.8369 7.27601 20.5154 8.41798 21.8435C8.50353 21.9428 8.62827 22 8.75953 22C8.89079 22 9.01553 21.9428 9.10109 21.8435C10.2426 20.5156 14.1251 15.8374 16.1508 11.4057C16.6209 10.3768 16.8591 9.26453 16.8591 8.0996C16.8587 3.63349 13.2252 0 8.75931 0ZM8.75931 12.3066C6.43957 12.3066 4.55212 10.4191 4.55212 8.09937C4.55212 5.77941 6.43957 3.89197 8.75931 3.89197C11.079 3.89197 12.9665 5.77941 12.9665 8.09937C12.9667 10.4191 11.0793 12.3066 8.75931 12.3066Z" fill="#3C3C3B"/>
</svg>
