<svg width="21" height="20" viewBox="0 0 21 20" fill="none" xmlns="http://www.w3.org/2000/svg">
<path d="M8.94257 11.6971C7.03371 9.78825 6.6027 7.8794 6.50547 7.11462C6.4783 6.90315 6.55107 6.69108 6.70235 6.54086L8.24709 4.99681C8.47432 4.76972 8.51465 4.4158 8.34432 4.14341L5.88481 0.324325C5.69638 0.0227043 5.30948 -0.0861536 4.99142 0.0729604L1.04303 1.93251C0.785823 2.05916 0.634538 2.33243 0.663741 2.61764C0.870625 4.58304 1.72747 9.41448 6.47547 14.1628C11.2235 18.9112 16.0542 19.7677 18.0207 19.9746C18.3059 20.0038 18.5791 19.8525 18.7058 19.5953L20.5653 15.6469C20.7238 15.3295 20.6157 14.9436 20.3153 14.7549L16.4963 12.296C16.224 12.1255 15.8701 12.1656 15.6429 12.3926L14.0988 13.9373C13.9486 14.0886 13.7365 14.1614 13.5251 14.1342C12.7603 14.037 10.8514 13.606 8.94257 11.6971V11.6971Z" fill="#3C3C3B"/>
<path d="M16.5225 10.6892C16.1417 10.6892 15.8329 10.3804 15.8329 9.99958C15.8297 7.14444 13.5159 4.8307 10.6608 4.82747C10.2799 4.82747 9.97119 4.51872 9.97119 4.13786C9.97119 3.75699 10.2799 3.44824 10.6608 3.44824C14.2774 3.45223 17.2082 6.38303 17.2121 9.99958C17.2121 10.3804 16.9034 10.6892 16.5225 10.6892Z" fill="#3C3C3B"/>
<path d="M19.9706 10.689C19.5897 10.689 19.281 10.3803 19.281 9.99941C19.2757 5.24082 15.4194 1.38455 10.6608 1.37923C10.2799 1.37923 9.97119 1.07048 9.97119 0.689615C9.97119 0.308751 10.2799 0 10.6608 0C16.1808 0.00608098 20.6541 4.47941 20.6602 9.99941C20.6602 10.1823 20.5876 10.3577 20.4582 10.487C20.3289 10.6164 20.1535 10.689 19.9706 10.689Z" fill="#3C3C3B"/>
</svg>
